<svg width="317" height="59" viewBox="0 0 317 59" fill="none" xmlns="http://www.w3.org/2000/svg">
<rect width="317" height="59" fill="#0066FF" fill-opacity="0.75"/>
<path d="M38.5 10L43.9415 15.9402L52.3199 14.5621L52.2785 22.285L59.6734 26.1139L54.1683 32.0057L57.1195 39.25L48.7268 40.554L45.8534 47.824L38.5 43.93L31.1466 47.824L28.2732 40.554L19.8805 39.25L22.8317 32.0057L17.3266 26.1139L24.7215 22.285L24.6801 14.5621L33.0585 15.9402L38.5 10Z" fill="#C4C4C4"/>
<path d="M84.7695 22.7891H79.2852V38H77.0469V22.7891H71.5742V20.9375H84.7695V22.7891ZM91.0508 38.2344C89.332 38.2344 87.9336 37.6719 86.8555 36.5469C85.7773 35.4141 85.2383 33.9023 85.2383 32.0117V31.6133C85.2383 30.3555 85.4766 29.2344 85.9531 28.25C86.4375 27.2578 87.1094 26.4844 87.9688 25.9297C88.8359 25.3672 89.7734 25.0859 90.7812 25.0859C92.4297 25.0859 93.7109 25.6289 94.625 26.7148C95.5391 27.8008 95.9961 29.3555 95.9961 31.3789V32.2812H87.4062C87.4375 33.5312 87.8008 34.543 88.4961 35.3164C89.1992 36.082 90.0898 36.4648 91.168 36.4648C91.9336 36.4648 92.582 36.3086 93.1133 35.9961C93.6445 35.6836 94.1094 35.2695 94.5078 34.7539L95.832 35.7852C94.7695 37.418 93.1758 38.2344 91.0508 38.2344ZM90.7812 26.8672C89.9062 26.8672 89.1719 27.1875 88.5781 27.8281C87.9844 28.4609 87.6172 29.3516 87.4766 30.5H93.8281V30.3359C93.7656 29.2344 93.4688 28.3828 92.9375 27.7812C92.4062 27.1719 91.6875 26.8672 90.7812 26.8672ZM105.898 34.6367C105.898 34.0508 105.676 33.5977 105.23 33.2773C104.793 32.9492 104.023 32.668 102.922 32.4336C101.828 32.1992 100.957 31.918 100.309 31.5898C99.668 31.2617 99.1914 30.8711 98.8789 30.418C98.5742 29.9648 98.4219 29.4258 98.4219 28.8008C98.4219 27.7617 98.8594 26.8828 99.7344 26.1641C100.617 25.4453 101.742 25.0859 103.109 25.0859C104.547 25.0859 105.711 25.457 106.602 26.1992C107.5 26.9414 107.949 27.8906 107.949 29.0469H105.77C105.77 28.4531 105.516 27.9414 105.008 27.5117C104.508 27.082 103.875 26.8672 103.109 26.8672C102.32 26.8672 101.703 27.0391 101.258 27.3828C100.812 27.7266 100.59 28.1758 100.59 28.7305C100.59 29.2539 100.797 29.6484 101.211 29.9141C101.625 30.1797 102.371 30.4336 103.449 30.6758C104.535 30.918 105.414 31.207 106.086 31.543C106.758 31.8789 107.254 32.2852 107.574 32.7617C107.902 33.2305 108.066 33.8047 108.066 34.4844C108.066 35.6172 107.613 36.5273 106.707 37.2148C105.801 37.8945 104.625 38.2344 103.18 38.2344C102.164 38.2344 101.266 38.0547 100.484 37.6953C99.7031 37.3359 99.0898 36.8359 98.6445 36.1953C98.207 35.5469 97.9883 34.8477 97.9883 34.0977H100.156C100.195 34.8242 100.484 35.4023 101.023 35.832C101.57 36.2539 102.289 36.4648 103.18 36.4648C104 36.4648 104.656 36.3008 105.148 35.9727C105.648 35.6367 105.898 35.1914 105.898 34.6367ZM113.832 22.25V25.3203H116.199V26.9961H113.832V34.8594C113.832 35.3672 113.938 35.75 114.148 36.0078C114.359 36.2578 114.719 36.3828 115.227 36.3828C115.477 36.3828 115.82 36.3359 116.258 36.2422V38C115.688 38.1562 115.133 38.2344 114.594 38.2344C113.625 38.2344 112.895 37.9414 112.402 37.3555C111.91 36.7695 111.664 35.9375 111.664 34.8594V26.9961H109.355V25.3203H111.664V22.25H113.832ZM137.586 32.5859C137.375 34.3906 136.707 35.7852 135.582 36.7695C134.465 37.7461 132.977 38.2344 131.117 38.2344C129.102 38.2344 127.484 37.5117 126.266 36.0664C125.055 34.6211 124.449 32.6875 124.449 30.2656V28.625C124.449 27.0391 124.73 25.6445 125.293 24.4414C125.863 23.2383 126.668 22.3164 127.707 21.6758C128.746 21.0273 129.949 20.7031 131.316 20.7031C133.129 20.7031 134.582 21.2109 135.676 22.2266C136.77 23.2344 137.406 24.6328 137.586 26.4219H135.324C135.129 25.0625 134.703 24.0781 134.047 23.4688C133.398 22.8594 132.488 22.5547 131.316 22.5547C129.879 22.5547 128.75 23.0859 127.93 24.1484C127.117 25.2109 126.711 26.7227 126.711 28.6836V30.3359C126.711 32.1875 127.098 33.6602 127.871 34.7539C128.645 35.8477 129.727 36.3945 131.117 36.3945C132.367 36.3945 133.324 36.1133 133.988 35.5508C134.66 34.9805 135.105 33.9922 135.324 32.5859H137.586ZM146.926 31.0977H142.918V38H140.656V20.9375H146.305C148.227 20.9375 149.703 21.375 150.734 22.25C151.773 23.125 152.293 24.3984 152.293 26.0703C152.293 27.1328 152.004 28.0586 151.426 28.8477C150.855 29.6367 150.059 30.2266 149.035 30.6172L153.043 37.8594V38H150.629L146.926 31.0977ZM142.918 29.2578H146.375C147.492 29.2578 148.379 28.9688 149.035 28.3906C149.699 27.8125 150.031 27.0391 150.031 26.0703C150.031 25.0156 149.715 24.207 149.082 23.6445C148.457 23.082 147.551 22.7969 146.363 22.7891H142.918V29.2578ZM158.363 20.9375L163.941 34.8594L169.52 20.9375H172.438V38H170.188V31.3555L170.398 24.1836L164.797 38H163.074L157.484 24.2188L157.707 31.3555V38H155.457V20.9375H158.363ZM184.625 36.1602H192.711V38H182.363V20.9375H184.625V36.1602ZM194.363 31.543C194.363 30.3008 194.605 29.1836 195.09 28.1914C195.582 27.1992 196.262 26.4336 197.129 25.8945C198.004 25.3555 199 25.0859 200.117 25.0859C201.844 25.0859 203.238 25.6836 204.301 26.8789C205.371 28.0742 205.906 29.6641 205.906 31.6484V31.8008C205.906 33.0352 205.668 34.1445 205.191 35.1289C204.723 36.1055 204.047 36.8672 203.164 37.4141C202.289 37.9609 201.281 38.2344 200.141 38.2344C198.422 38.2344 197.027 37.6367 195.957 36.4414C194.895 35.2461 194.363 33.6641 194.363 31.6953V31.543ZM196.543 31.8008C196.543 33.207 196.867 34.3359 197.516 35.1875C198.172 36.0391 199.047 36.4648 200.141 36.4648C201.242 36.4648 202.117 36.0352 202.766 35.1758C203.414 34.3086 203.738 33.0977 203.738 31.543C203.738 30.1523 203.406 29.0273 202.742 28.168C202.086 27.3008 201.211 26.8672 200.117 26.8672C199.047 26.8672 198.184 27.293 197.527 28.1445C196.871 28.9961 196.543 30.2148 196.543 31.8008ZM208.109 31.5547C208.109 29.5781 208.566 28.0078 209.48 26.8438C210.395 25.6719 211.605 25.0859 213.113 25.0859C214.66 25.0859 215.867 25.6328 216.734 26.7266L216.84 25.3203H218.82V37.6953C218.82 39.3359 218.332 40.6289 217.355 41.5742C216.387 42.5195 215.082 42.9922 213.441 42.9922C212.527 42.9922 211.633 42.7969 210.758 42.4062C209.883 42.0156 209.215 41.4805 208.754 40.8008L209.879 39.5C210.809 40.6484 211.945 41.2227 213.289 41.2227C214.344 41.2227 215.164 40.9258 215.75 40.332C216.344 39.7383 216.641 38.9023 216.641 37.8242V36.7344C215.773 37.7344 214.59 38.2344 213.09 38.2344C211.605 38.2344 210.402 37.6367 209.48 36.4414C208.566 35.2461 208.109 33.6172 208.109 31.5547ZM210.289 31.8008C210.289 33.2305 210.582 34.3555 211.168 35.1758C211.754 35.9883 212.574 36.3945 213.629 36.3945C214.996 36.3945 216 35.7734 216.641 34.5312V28.7422C215.977 27.5312 214.98 26.9258 213.652 26.9258C212.598 26.9258 211.773 27.3359 211.18 28.1562C210.586 28.9766 210.289 30.1914 210.289 31.8008ZM221.527 31.543C221.527 30.3008 221.77 29.1836 222.254 28.1914C222.746 27.1992 223.426 26.4336 224.293 25.8945C225.168 25.3555 226.164 25.0859 227.281 25.0859C229.008 25.0859 230.402 25.6836 231.465 26.8789C232.535 28.0742 233.07 29.6641 233.07 31.6484V31.8008C233.07 33.0352 232.832 34.1445 232.355 35.1289C231.887 36.1055 231.211 36.8672 230.328 37.4141C229.453 37.9609 228.445 38.2344 227.305 38.2344C225.586 38.2344 224.191 37.6367 223.121 36.4414C222.059 35.2461 221.527 33.6641 221.527 31.6953V31.543ZM223.707 31.8008C223.707 33.207 224.031 34.3359 224.68 35.1875C225.336 36.0391 226.211 36.4648 227.305 36.4648C228.406 36.4648 229.281 36.0352 229.93 35.1758C230.578 34.3086 230.902 33.0977 230.902 31.543C230.902 30.1523 230.57 29.0273 229.906 28.168C229.25 27.3008 228.375 26.8672 227.281 26.8672C226.211 26.8672 225.348 27.293 224.691 28.1445C224.035 28.9961 223.707 30.2148 223.707 31.8008ZM238.73 22.25V25.3203H241.098V26.9961H238.73V34.8594C238.73 35.3672 238.836 35.75 239.047 36.0078C239.258 36.2578 239.617 36.3828 240.125 36.3828C240.375 36.3828 240.719 36.3359 241.156 36.2422V38C240.586 38.1562 240.031 38.2344 239.492 38.2344C238.523 38.2344 237.793 37.9414 237.301 37.3555C236.809 36.7695 236.562 35.9375 236.562 34.8594V26.9961H234.254V25.3203H236.562V22.25H238.73ZM247.789 34.8242L250.742 25.3203H253.062L247.965 39.957C247.176 42.0664 245.922 43.1211 244.203 43.1211L243.793 43.0859L242.984 42.9336V41.1758L243.57 41.2227C244.305 41.2227 244.875 41.0742 245.281 40.7773C245.695 40.4805 246.035 39.9375 246.301 39.1484L246.781 37.8594L242.258 25.3203H244.625L247.789 34.8242ZM265.719 31.8008C265.719 33.7305 265.277 35.2852 264.395 36.4648C263.512 37.6445 262.316 38.2344 260.809 38.2344C259.27 38.2344 258.059 37.7461 257.176 36.7695V42.875H255.008V25.3203H256.988L257.094 26.7266C257.977 25.6328 259.203 25.0859 260.773 25.0859C262.297 25.0859 263.5 25.6602 264.383 26.8086C265.273 27.957 265.719 29.5547 265.719 31.6016V31.8008ZM263.551 31.5547C263.551 30.125 263.246 28.9961 262.637 28.168C262.027 27.3398 261.191 26.9258 260.129 26.9258C258.816 26.9258 257.832 27.5078 257.176 28.6719V34.7305C257.824 35.8867 258.816 36.4648 260.152 36.4648C261.191 36.4648 262.016 36.0547 262.625 35.2344C263.242 34.4062 263.551 33.1797 263.551 31.5547ZM273.746 38.2344C272.027 38.2344 270.629 37.6719 269.551 36.5469C268.473 35.4141 267.934 33.9023 267.934 32.0117V31.6133C267.934 30.3555 268.172 29.2344 268.648 28.25C269.133 27.2578 269.805 26.4844 270.664 25.9297C271.531 25.3672 272.469 25.0859 273.477 25.0859C275.125 25.0859 276.406 25.6289 277.32 26.7148C278.234 27.8008 278.691 29.3555 278.691 31.3789V32.2812H270.102C270.133 33.5312 270.496 34.543 271.191 35.3164C271.895 36.082 272.785 36.4648 273.863 36.4648C274.629 36.4648 275.277 36.3086 275.809 35.9961C276.34 35.6836 276.805 35.2695 277.203 34.7539L278.527 35.7852C277.465 37.418 275.871 38.2344 273.746 38.2344ZM273.477 26.8672C272.602 26.8672 271.867 27.1875 271.273 27.8281C270.68 28.4609 270.312 29.3516 270.172 30.5H276.523V30.3359C276.461 29.2344 276.164 28.3828 275.633 27.7812C275.102 27.1719 274.383 26.8672 273.477 26.8672Z" fill="white"/>
</svg>
